<svg width="40" height="40" viewBox="0 0 40 40" fill="none" xmlns="http://www.w3.org/2000/svg">
<g id="nimbus:code" clip-path="url(#clip0_1_3848)">
<path id="Vector" d="M23.8475 1.53253L14.0975 37.9075L17.12 38.7175L26.865 2.34253L23.85 1.53003L23.8475 1.53253ZM9.77251 10.1175L1.49501 17.8425C1.18106 18.1328 0.930553 18.4848 0.759224 18.8766C0.587895 19.2683 0.499451 19.6912 0.499451 20.1188C0.499451 20.5463 0.587895 20.9693 0.759224 21.361C0.930553 21.7527 1.18106 22.1048 1.49501 22.395L9.62001 30.1225L11.9225 27.9975L3.62001 20.1225L11.9225 12.3425L9.77251 10.1175ZM39.505 17.845L31.23 10.1175L29.0775 12.3925L37.3775 20.12L29.0775 27.8975L31.3775 30.0225L39.505 22.3975C39.819 22.1073 40.0695 21.7552 40.2408 21.3635C40.4121 20.9718 40.5006 20.5488 40.5006 20.1213C40.5006 19.6937 40.4121 19.2708 40.2408 18.8791C40.0695 18.4873 39.819 18.1353 39.505 17.845Z" fill="#333333"/>
</g>
<defs>
<clipPath id="clip0_1_3848">
<rect width="40" height="40" fill="white"/>
</clipPath>
</defs>
</svg>
