<svg width="40" height="40" viewBox="0 0 40 40" fill="none" xmlns="http://www.w3.org/2000/svg">
<g id="fluent:phone-desktop-28-regular">
<path id="Vector" d="M13.9243 14.2857C14.7385 14.286 15.5223 14.5953 16.1173 15.151C16.7123 15.7068 17.0742 16.4677 17.13 17.28L17.1385 17.5V33.9286C17.1386 34.7433 16.8293 35.5276 16.2732 36.123C15.7171 36.7184 14.9556 37.0803 14.1428 37.1357L13.9243 37.1429H6.0714C5.25694 37.143 4.4728 36.8339 3.87747 36.2781C3.28214 35.7223 2.92001 34.9612 2.86426 34.1486L2.85712 33.9286V17.5C2.85702 16.6856 3.16611 15.9014 3.72193 15.3061C4.27775 14.7108 5.03885 14.3486 5.8514 14.2929L6.0714 14.2857H13.9243ZM13.9243 16.4286H6.0714C5.81249 16.4286 5.56234 16.5224 5.36722 16.6926C5.17209 16.8627 5.04519 17.0978 5.00997 17.3543L4.99997 17.5V33.9286C4.99997 34.4715 5.40283 34.92 5.92569 34.99L6.0714 35H13.9243C14.1832 35 14.4333 34.9063 14.6284 34.7361C14.8236 34.5659 14.9505 34.3308 14.9857 34.0743L14.9957 33.9286V17.5C14.9956 17.2409 14.9017 16.9906 14.7312 16.7954C14.5607 16.6003 14.3253 16.4735 14.0685 16.4386L13.9243 16.4286ZM11.0714 30.7143C11.3429 30.7144 11.6042 30.8175 11.8025 31.0029C12.0009 31.1882 12.1215 31.4419 12.14 31.7127C12.1585 31.9835 12.0735 32.2513 11.9022 32.4619C11.7309 32.6725 11.486 32.8102 11.2171 32.8472L11.0714 32.8572H8.92712C8.65565 32.8571 8.39434 32.754 8.19599 32.5686C7.99763 32.3833 7.87701 32.1296 7.85851 31.8588C7.84001 31.5879 7.925 31.3202 8.09631 31.1096C8.26762 30.899 8.51247 30.7613 8.7814 30.7243L8.92712 30.7143H11.0714ZM33.9328 2.85718C34.7471 2.85744 35.5308 3.16669 36.1259 3.72248C36.7209 4.27826 37.0828 5.03915 37.1385 5.85146L37.1471 6.07146V22.1429C37.1472 22.9574 36.8381 23.7415 36.2823 24.3368C35.7265 24.9322 34.9654 25.2943 34.1528 25.35L33.9328 25.3572H27.14V29.2857H28.9285C29.2 29.2858 29.4613 29.389 29.6597 29.5743C29.858 29.7596 29.9787 30.0133 29.9972 30.2841C30.0157 30.555 29.9307 30.8227 29.7594 31.0333C29.588 31.2439 29.3432 31.3816 29.0743 31.4186L28.9285 31.4286H18.5714V29.2857H24.9971V25.3572H18.5714V23.2143H33.9328C34.1917 23.2143 34.4419 23.1205 34.637 22.9504C34.8321 22.7802 34.959 22.5451 34.9943 22.2886L35.0043 22.1429V6.07146C35.0042 5.81234 34.9102 5.56201 34.7398 5.36686C34.5693 5.1717 34.3339 5.04493 34.0771 5.01003L33.9328 5.00003H10.3571C10.0982 5.00005 9.84806 5.09381 9.65293 5.26399C9.4578 5.43417 9.3309 5.66924 9.29569 5.92575L9.28569 6.07146V12.8572H7.14283V6.07146C7.14273 5.257 7.45182 4.47286 8.00764 3.87753C8.56346 3.2822 9.32456 2.92007 10.1371 2.86432L10.3571 2.85718H33.9328Z" fill="#333333"/>
</g>
</svg>
