<svg width="40" height="40" viewBox="0 0 40 40" fill="none" xmlns="http://www.w3.org/2000/svg">
<g id="material-symbols:palette-outline">
<path id="Vector" d="M20 36.6666C17.7222 36.6666 15.5694 36.2288 13.5417 35.3533C11.5139 34.4777 9.74333 33.2833 8.23 31.7699C6.71666 30.2566 5.52222 28.486 4.64666 26.4583C3.77111 24.4305 3.33333 22.2777 3.33333 19.9999C3.33333 17.6944 3.78499 15.5277 4.68833 13.4999C5.59166 11.4721 6.81388 9.70825 8.35499 8.20825C9.89611 6.70825 11.6944 5.52103 13.75 4.64659C15.8056 3.77214 18 3.33436 20.3333 3.33325C22.5555 3.33325 24.6528 3.71547 26.625 4.47992C28.5972 5.24436 30.3267 6.29992 31.8133 7.64658C33.3 8.99325 34.4805 10.5905 35.355 12.4383C36.2294 14.286 36.6667 16.2788 36.6667 18.4166C36.6667 21.611 35.6944 24.0627 33.75 25.7716C31.8055 27.4805 29.4444 28.3344 26.6667 28.3333H23.5833C23.3333 28.3333 23.16 28.4027 23.0633 28.5416C22.9667 28.6805 22.9178 28.8333 22.9167 28.9999C22.9167 29.3333 23.125 29.8127 23.5417 30.4383C23.9583 31.0638 24.1667 31.7788 24.1667 32.5833C24.1667 33.9721 23.785 34.9999 23.0217 35.6666C22.2583 36.3333 21.2511 36.6666 20 36.6666ZM10.8333 21.6666C11.5556 21.6666 12.1528 21.4305 12.625 20.9583C13.0972 20.486 13.3333 19.8888 13.3333 19.1666C13.3333 18.4444 13.0972 17.8471 12.625 17.3749C12.1528 16.9027 11.5556 16.6666 10.8333 16.6666C10.1111 16.6666 9.51388 16.9027 9.04166 17.3749C8.56944 17.8471 8.33333 18.4444 8.33333 19.1666C8.33333 19.8888 8.56944 20.486 9.04166 20.9583C9.51388 21.4305 10.1111 21.6666 10.8333 21.6666ZM15.8333 14.9999C16.5556 14.9999 17.1528 14.7638 17.625 14.2916C18.0972 13.8194 18.3333 13.2221 18.3333 12.4999C18.3333 11.7777 18.0972 11.1805 17.625 10.7083C17.1528 10.236 16.5556 9.99992 15.8333 9.99992C15.1111 9.99992 14.5139 10.236 14.0417 10.7083C13.5694 11.1805 13.3333 11.7777 13.3333 12.4999C13.3333 13.2221 13.5694 13.8194 14.0417 14.2916C14.5139 14.7638 15.1111 14.9999 15.8333 14.9999ZM24.1667 14.9999C24.8889 14.9999 25.4861 14.7638 25.9583 14.2916C26.4305 13.8194 26.6667 13.2221 26.6667 12.4999C26.6667 11.7777 26.4305 11.1805 25.9583 10.7083C25.4861 10.236 24.8889 9.99992 24.1667 9.99992C23.4444 9.99992 22.8472 10.236 22.375 10.7083C21.9028 11.1805 21.6667 11.7777 21.6667 12.4999C21.6667 13.2221 21.9028 13.8194 22.375 14.2916C22.8472 14.7638 23.4444 14.9999 24.1667 14.9999ZM29.1667 21.6666C29.8889 21.6666 30.4861 21.4305 30.9583 20.9583C31.4306 20.486 31.6667 19.8888 31.6667 19.1666C31.6667 18.4444 31.4306 17.8471 30.9583 17.3749C30.4861 16.9027 29.8889 16.6666 29.1667 16.6666C28.4444 16.6666 27.8472 16.9027 27.375 17.3749C26.9028 17.8471 26.6667 18.4444 26.6667 19.1666C26.6667 19.8888 26.9028 20.486 27.375 20.9583C27.8472 21.4305 28.4444 21.6666 29.1667 21.6666ZM20 33.3333C20.25 33.3333 20.4517 33.2638 20.605 33.1249C20.7583 32.986 20.8344 32.8055 20.8333 32.5833C20.8333 32.1944 20.625 31.736 20.2083 31.2083C19.7917 30.6805 19.5833 29.8888 19.5833 28.8333C19.5833 27.6666 19.9861 26.736 20.7917 26.0416C21.5972 25.3471 22.5833 24.9999 23.75 24.9999H26.6667C28.5 24.9999 30.0694 24.4655 31.375 23.3966C32.6806 22.3277 33.3333 20.6677 33.3333 18.4166C33.3333 15.0555 32.0489 12.2566 29.48 10.0199C26.9111 7.78325 23.8622 6.66547 20.3333 6.66659C16.5555 6.66659 13.3333 7.95825 10.6667 10.5416C7.99999 13.1249 6.66666 16.2777 6.66666 19.9999C6.66666 23.6944 7.96555 26.8405 10.5633 29.4383C13.1611 32.036 16.3067 33.3344 20 33.3333Z" fill="#333333"/>
</g>
</svg>
