<svg width="40" height="40" viewBox="0 0 40 40" fill="none" xmlns="http://www.w3.org/2000/svg">
<rect width="40" height="40" fill="#F5F5F5"/>
<g id="Desktop - 1" clip-path="url(#clip0_0_1)">
<rect width="1440" height="7379" transform="translate(-130 -3255)" fill="white"/>
<g id="Frame 1686561810">
<g id="Frame 1686561808">
<g id="Frame 1686561806">
<g id="Frame 1686561774">
<rect x="-29.5" y="-46.5" width="399" height="249" rx="19.5" fill="white"/>
<rect x="-29.5" y="-46.5" width="399" height="249" rx="19.5" stroke="#D9D7D7"/>
<g id="Frame 1686561801">
<g id="material-symbols-light:laptop-mac-outline">
<path id="Vector" d="M3.78334 32.1167C3.20778 32.1167 2.71112 31.9073 2.29334 31.4884C1.87556 31.0695 1.66667 30.5734 1.66667 30.0001H7.69334C6.92556 30.0001 6.285 29.7434 5.77167 29.2301C5.25834 28.7167 5.00112 28.0756 5 27.3067V9.36008C5 8.5923 5.25723 7.95175 5.77167 7.43841C6.28612 6.92508 6.92612 6.66786 7.69167 6.66675H32.3083C33.075 6.66675 33.715 6.92397 34.2283 7.43841C34.7417 7.95286 34.9989 8.59341 35 9.36008V27.3084C35 28.0751 34.7428 28.7156 34.2283 29.2301C33.7139 29.7445 33.0739 30.0012 32.3083 30.0001H38.3333C38.3333 30.5745 38.1244 31.0706 37.7067 31.4884C37.2889 31.9062 36.7928 32.1151 36.2183 32.1151L3.78334 32.1167ZM20 31.2834C20.28 31.2834 20.5211 31.1817 20.7233 30.9784C20.9256 30.7751 21.0267 30.5345 21.0267 30.2567C21.0267 29.979 20.9256 29.7379 20.7233 29.5334C20.5211 29.329 20.28 29.229 20 29.2334C19.72 29.2379 19.4789 29.3384 19.2767 29.5351C19.0744 29.7317 18.9733 29.9729 18.9733 30.2584C18.9733 30.544 19.0744 30.7845 19.2767 30.9801C19.4789 31.1756 19.72 31.2767 20 31.2834ZM7.69334 28.3334H32.3083C32.5639 28.3334 32.7989 28.2267 33.0133 28.0134C33.2278 27.8001 33.3344 27.5645 33.3333 27.3067V9.36008C33.3333 9.10342 33.2267 8.86786 33.0133 8.65341C32.8 8.43897 32.565 8.3323 32.3083 8.33341H7.69167C7.43612 8.33341 7.20112 8.44008 6.98667 8.65341C6.77223 8.86675 6.66556 9.1023 6.66667 9.36008V27.3084C6.66667 27.564 6.77334 27.799 6.98667 28.0134C7.2 28.2279 7.435 28.3345 7.69167 28.3334" fill="#333333"/>
</g>
</g>
</g>
</g>
</g>
</g>
</g>
<defs>
<clipPath id="clip0_0_1">
<rect width="1440" height="7379" fill="white" transform="translate(-130 -3255)"/>
</clipPath>
</defs>
</svg>
