<svg width="40" height="40" viewBox="0 0 40 40" fill="none" xmlns="http://www.w3.org/2000/svg">
<g id="iconoir:design-nib">
<g id="Group">
<path id="Vector" d="M5.49334 34.3366L16.1 23.73M29.4567 19.0133L26.2817 28.5383C26.231 28.691 26.1442 28.8292 26.0288 28.9412C25.9133 29.0532 25.7725 29.1357 25.6183 29.1816L6.155 34.9666C5.97965 35.0187 5.79338 35.0217 5.61645 34.9753C5.43953 34.9288 5.27872 34.8348 5.15155 34.7033C5.02437 34.5718 4.93569 34.408 4.89516 34.2296C4.85463 34.0512 4.8638 33.8652 4.92167 33.6916L11.2417 14.735C11.287 14.5989 11.361 14.4741 11.4588 14.3691C11.5566 14.2642 11.6758 14.1815 11.8083 14.1266L20.7867 10.43C20.9692 10.3546 21.17 10.3349 21.3636 10.3735C21.5573 10.4121 21.7353 10.5071 21.875 10.6466L29.215 17.99C29.3463 18.1213 29.4385 18.2866 29.4812 18.4673C29.5239 18.6481 29.5154 18.8371 29.4567 19.0133Z" stroke="#333333" stroke-width="2.5" stroke-linecap="round" stroke-linejoin="round"/>
<path id="Vector_2" d="M29.6534 18.4266L34.3667 13.7117C34.9916 13.0866 35.3426 12.2389 35.3426 11.355C35.3426 10.4711 34.9916 9.62341 34.3667 8.99832L30.8334 5.46165C30.5238 5.15198 30.1563 4.90633 29.7518 4.73873C29.3473 4.57113 28.9137 4.48486 28.4759 4.48486C28.038 4.48486 27.6044 4.57113 27.1999 4.73873C26.7954 4.90633 26.4279 5.15198 26.1184 5.46165L21.405 10.1767M19.635 20.1933C19.4028 19.9612 19.1271 19.7771 18.8238 19.6515C18.5204 19.526 18.1953 19.4614 17.8669 19.4614C17.5386 19.4615 17.2135 19.5263 16.9102 19.652C16.6069 19.7777 16.3313 19.9619 16.0992 20.1942C15.8671 20.4264 15.683 20.702 15.5574 21.0054C15.4318 21.3088 15.3672 21.6339 15.3673 21.9622C15.3674 22.2906 15.4321 22.6157 15.5579 22.919C15.6836 23.2223 15.8678 23.4979 16.1 23.73C16.569 24.1988 17.205 24.462 17.8681 24.4619C18.5312 24.4617 19.1671 24.1981 19.6359 23.7292C20.1046 23.2602 20.3679 22.6242 20.3677 21.9611C20.3676 21.298 20.104 20.6621 19.635 20.1933Z" stroke="#333333" stroke-width="2.5" stroke-linecap="round" stroke-linejoin="round"/>
</g>
</g>
</svg>
